<svg xmlns="http://www.w3.org/2000/svg" width="16" height="16" viewBox="0 0 14.323 14.323"><path fill="#030303" d="m13.991 6.034-1.466-.113a5.458 5.458 0 0 0-.7-1.675l.958-1.118a.359.359 0 0 0-.019-.488l-1.082-1.087a.36.36 0 0 0-.488-.019l-1.118.958A5.484 5.484 0 0 0 8.4 1.8L8.287.334A.36.36 0 0 0 7.93 0H6.392a.359.359 0 0 0-.358.331L5.921 1.8a5.458 5.458 0 0 0-1.675.7l-1.117-.965a.359.359 0 0 0-.487.018L1.553 2.641a.36.36 0 0 0-.019.488l.958 1.118a5.484 5.484 0 0 0-.7 1.675l-1.466.113A.359.359 0 0 0 0 6.392V7.93a.359.359 0 0 0 .331.358L1.8 8.4a5.458 5.458 0 0 0 .7 1.675l-.958 1.118a.359.359 0 0 0 .019.488l1.087 1.087a.36.36 0 0 0 .488.019l1.118-.958a5.471 5.471 0 0 0 1.675.7l.113 1.466a.36.36 0 0 0 .359.332h1.53a.359.359 0 0 0 .358-.331l.113-1.466a5.458 5.458 0 0 0 1.675-.7l1.118.958a.359.359 0 0 0 .488-.019l1.087-1.087a.36.36 0 0 0 .019-.488l-.958-1.118a5.484 5.484 0 0 0 .7-1.675l1.466-.113a.36.36 0 0 0 .331-.359V6.392a.36.36 0 0 0-.331-.358Zm-6.83 4.2a3.069 3.069 0 1 1 3.069-3.073 3.069 3.069 0 0 1-3.069 3.069Z" data-name="001-gear"/></svg>