<svg xmlns="http://www.w3.org/2000/svg" width="16" height="16" viewBox="0 0 13.53 13.28"><g data-name="Group 35"><g data-name="Group 32"><path fill="#030303" stroke="#030303" d="M6.763 4.1a1.8 1.8 0 1 1 1.8-1.8 1.8 1.8 0 0 1-1.8 1.8Z" data-name="Path 6"/></g><g data-name="Group 33"><path fill="#030303" stroke="#030303" d="M.854 10.797a1.8 1.8 0 1 1 2.462.66 1.8 1.8 0 0 1-2.462-.66Z" data-name="Path 7"/></g><g data-name="Group 34"><path fill="#030303" stroke="#030303" d="M10.214 11.457a1.8 1.8 0 1 1 2.462-.66 1.8 1.8 0 0 1-2.462.66Z" data-name="Path 8"/></g></g><g data-name="Group 36"><path fill="#030303" stroke="#030303" d="m2.085 7.11-.719-.039a5.427 5.427 0 0 1 2.437-4.223l.4.6A4.706 4.706 0 0 0 2.085 7.11Z" data-name="Path 9"/></g><g data-name="Group 37"><path fill="#030303" stroke="#030303" d="M11.444 7.11a4.706 4.706 0 0 0-2.113-3.659l.4-.6a5.427 5.427 0 0 1 2.437 4.223Z" data-name="Path 10"/></g><g data-name="Group 38"><path fill="#030303" stroke="#030303" d="M6.765 12.78a5.355 5.355 0 0 1-2.437-.579l.325-.643a4.715 4.715 0 0 0 4.224 0l.325.643a5.355 5.355 0 0 1-2.437.579Z" data-name="Path 11"/></g></svg>