<svg xmlns="http://www.w3.org/2000/svg" width="16" height="16" viewBox="0 0 12.303 12.304"><path fill="#030303" d="M11.374.929a3.179 3.179 0 0 0-4.491 0L5.376 2.435a3.922 3.922 0 0 1 1.907.153q.166.056.325.126l.529-.529a1.401 1.401 0 0 1 1.982 1.982L9.033 5.252 7.266 7.018a1.4 1.4 0 0 1-2.272-.426 1.336 1.336 0 0 1-.053-.141L3.627 7.775A3.263 3.263 0 0 0 5.303 9.05q.127.041.257.072a3.231 3.231 0 0 0 2.888-.777c.025-.023 2.925-2.923 2.925-2.923a3.18 3.18 0 0 0 0-4.492ZM5.02 9.716q-.166-.056-.325-.126l-.529.53a1.402 1.402 0 0 1-1.983-1.982l2.992-2.961a.818.818 0 0 1 .216-.15 1.425 1.425 0 0 1 1.17-.045 1.41 1.41 0 0 1 .81.9v.01l1.332-1.329c.035-.035-.384-.485-.427-.528a3.251 3.251 0 0 0-.555-.441 3.164 3.164 0 0 0-3.938.436L.929 6.882A3.175 3.175 0 0 0 3.163 12.3a3.213 3.213 0 0 0 2.257-.929l1.507-1.502a3.928 3.928 0 0 1-1.907-.153Z" data-name="003-link"/></svg>